<?xml version="1.0" encoding="UTF-8" standalone="no"?>
<!-- Created with Inkscape (http://www.inkscape.org/) -->

<svg
   xmlns:dc="http://purl.org/dc/elements/1.1/"
   xmlns:cc="http://creativecommons.org/ns#"
   xmlns:rdf="http://www.w3.org/1999/02/22-rdf-syntax-ns#"
   xmlns:svg="http://www.w3.org/2000/svg"
   xmlns="http://www.w3.org/2000/svg"
   xmlns:inkscape="http://www.inkscape.org/namespaces/inkscape"
   version="1.1"
   width="64"
   height="64"
   id="svg2995">
  <defs
     id="defs2997" />
  <metadata
     id="metadata3000">
    <rdf:RDF>
      <cc:Work
         rdf:about="">
        <dc:format>image/svg+xml</dc:format>
        <dc:type
           rdf:resource="http://purl.org/dc/dcmitype/StillImage" />
        <dc:title />
      </cc:Work>
    </rdf:RDF>
  </metadata>
  <g
     id="layer1">
    <path
       d="m 50.67565,12.64833 c 1.33918,1.4e-5 2.29654,-0.249009 2.87207,-0.74707 0.58657,-0.498032 0.87987,-1.317042 0.87988,-2.457032 C 54.42759,8.31534 54.13429,7.507398 53.54772,7.0204 52.97219,6.533441 52.01483,6.289952 50.67565,6.289931 l -2.68945,0 0,6.358399 2.68945,0 m -2.68945,4.416016 0,9.379882 -6.3916,0 0,-24.786132 9.76172,0 c 3.26495,2.5e-5 5.65558,0.547875 7.17187,1.643554 1.52732,1.095725 2.29099,2.82782 2.29102,5.196289 -3e-5,1.638037 -0.39846,2.982763 -1.19532,4.03418 -0.78582,1.051445 -1.9756,1.826184 -3.56933,2.324219 0.87433,0.19923 1.6546,0.653005 2.34082,1.361328 0.69724,0.697275 1.40004,1.759774 2.1084,3.1875 l 3.46972,7.039062 -6.80664,0 -3.02148,-6.159179 C 53.53664,19.045473 52.91685,18.198794 52.286,17.74501 51.6662,17.291243 50.83612,17.064355 49.79577,17.064346 l -1.80957,0"
       inkscape:connector-curvature="0"
       id="path3087"
       style="font-size:34px;font-style:normal;font-weight:bold;line-height:125%;letter-spacing:0px;word-spacing:0px;fill:#4040ff;fill-opacity:1;stroke:none;font-family:Sans;-inkscape-font-specification:Sans Bold" />
    <path
       d="m 47,25.2 0.9862,1.244228 -1.2798,1.641949 L 46,26.2 z"
       inkscape:connector-curvature="0"
       id="path4223"
       style="fill:#4040ff;fill-opacity:1;stroke:none" />
    <path
       d="M 40.3148,3.300044 41.5946,1.658096 43,3.2 42,4.2 40.3148,3.300044"
       inkscape:connector-curvature="0"
       id="path4229"
       style="fill:#4040ff;fill-opacity:1;stroke:none" />
    <path
       d="m 62,25.2 1.9735,1.244228 -1.2798,1.641949 L 61,26.2 z"
       inkscape:connector-curvature="0"
       id="path4243"
       style="fill:#4040ff;fill-opacity:1;stroke:none" />
    <path
       d="m 49.39585,14.290279 c 1.33918,1.3e-5 2.29654,-0.24901 2.87207,-0.747071 0.58657,-0.498032 0.87987,-1.317041 0.87988,-2.457031 C 53.14779,9.957289 52.85449,9.149347 52.26792,8.662349 51.69239,8.17539 50.73503,7.9319 49.39585,7.93188 l -2.68945,0 0,6.358399 2.68945,0 m -2.68945,4.416015 0,9.379883 -6.3916,0 0,-24.786133 9.76172,0 c 3.26495,2.5e-5 5.65558,0.547876 7.17187,1.643555 1.52732,1.095725 2.29099,2.82782 2.29102,5.196289 -3e-5,1.638037 -0.39846,2.982762 -1.19532,4.03418 -0.78582,1.051445 -1.9756,1.826184 -3.56933,2.324218 0.87433,0.199231 1.6546,0.653006 2.34082,1.361329 0.69724,0.697275 1.40004,1.759774 2.1084,3.1875 l 3.46972,7.039062 -6.80664,0 -3.02148,-6.15918 C 52.25684,20.687421 51.63705,19.840743 51.0062,19.386958 50.3864,18.933191 49.55632,18.706304 48.51597,18.706294 l -1.80957,0"
       inkscape:connector-curvature="0"
       id="path3096"
       style="font-size:34px;font-style:normal;font-weight:bold;line-height:125%;letter-spacing:0px;word-spacing:0px;fill:#0001c0;fill-opacity:1;stroke:none;font-family:Sans;-inkscape-font-specification:Sans Bold" />
    <path
       d="m 39.52428,10.086611 0,5.246094 C 38.16293,14.724 36.83481,14.264691 35.5399,13.954775 34.24496,13.6449 33.02198,13.489952 31.87096,13.489931 c -1.52736,2.1e-5 -2.65626,0.210307 -3.38672,0.63086 -0.73048,0.420592 -1.095714,1.073586 -1.095705,1.958984 -9e-6,0.66408 0.243481,1.184262 0.730465,1.560547 0.49804,0.365251 1.39452,0.68068 2.68946,0.946289 l 2.72265,0.547852 c 2.75584,0.5534 4.71483,1.394545 5.87696,2.523437 1.16208,1.128918 1.74314,2.733734 1.74316,4.814453 -2e-5,2.733729 -0.8135,4.770186 -2.44043,6.109375 -1.6159,1.328126 -4.08953,1.992187 -7.4209,1.992188 -1.57162,-10e-7 -3.14877,-0.149415 -4.731444,-0.448242 -1.582688,-0.298828 -3.165368,-0.741536 -4.748046,-1.328125 l 0,-5.395508 c 1.582678,0.841152 3.11002,1.477544 4.582031,1.90918 1.483064,0.420577 2.910799,0.630863 4.283199,0.630859 1.39452,4e-6 2.46256,-0.232418 3.20411,-0.697266 0.74152,-0.464838 1.11228,-1.1289 1.1123,-1.992187 -2e-5,-0.774732 -0.25457,-1.372388 -0.76367,-1.792969 -0.49806,-0.420564 -1.49969,-0.796866 -3.00488,-1.128906 L 28.74986,23.7829 c -2.479171,-0.531239 -4.294273,-1.377918 -5.44531,-2.540039 -1.139977,-1.162095 -1.709963,-2.728174 -1.709961,-4.698242 -2e-6,-2.468079 0.796872,-4.366189 2.390625,-5.694336 1.593744,-1.3281 3.884757,-1.992162 6.873046,-1.992187 1.36132,2.5e-5 2.76138,0.105168 4.2002,0.315429 1.43878,0.199244 2.92739,0.503605 4.46582,0.913086"
       inkscape:connector-curvature="0"
       id="path3084"
       style="font-size:34px;font-style:normal;font-weight:bold;line-height:125%;letter-spacing:0px;word-spacing:0px;fill:#40ff40;fill-opacity:1;stroke:none;font-family:Sans;-inkscape-font-specification:Sans Bold" />
    <path
       d="M 21.81041,27.402041 20.530617,29.04399 22,30.4 l 1,-1 -1.18959,-1.997959"
       inkscape:connector-curvature="0"
       id="path3160-9"
       style="fill:#40ff40;fill-opacity:1;stroke:none" />
    <path
       d="m 37,14.4 1.24448,2.574654 1.2798,-1.641949 L 38,13.4 z"
       inkscape:connector-curvature="0"
       id="path3130-0"
       style="fill:#40ff40;fill-opacity:1;stroke:none" />
    <path
       d="m 38.24448,11.72856 0,5.246094 c -1.36134,-0.608705 -2.68947,-1.068014 -3.98437,-1.37793 -1.29494,-0.309875 -2.51792,-0.464823 -3.66895,-0.464844 -1.52735,2.1e-5 -2.656256,0.210307 -3.386715,0.63086 -0.730477,0.420592 -1.095711,1.073586 -1.095703,1.958984 -8e-6,0.66408 0.243481,1.184262 0.730469,1.560547 0.498037,0.36525 1.394519,0.68068 2.689449,0.946289 l 2.72266,0.547851 c 2.75584,0.5534 4.71482,1.394545 5.87695,2.523438 1.16209,1.128917 1.74315,2.733734 1.74317,4.814453 -2e-5,2.733729 -0.8135,4.770185 -2.44043,6.109375 -1.61591,1.328125 -4.08954,1.992187 -7.4209,1.992188 -1.57163,-10e-7 -3.148773,-0.149415 -4.731446,-0.448243 -1.582688,-0.298827 -3.165369,-0.741535 -4.748047,-1.328125 l 0,-5.395507 c 1.582678,0.841151 3.11002,1.477544 4.582031,1.909179 1.483064,0.420578 2.910802,0.630864 4.283202,0.63086 1.39452,4e-6 2.46255,-0.232418 3.2041,-0.697266 0.74152,-0.464838 1.11229,-1.1289 1.11231,-1.992187 -2e-5,-0.774732 -0.25458,-1.372388 -0.76367,-1.792969 C 32.45052,26.681043 31.4489,26.304741 29.9437,25.972701 L 27.47007,25.424849 C 24.990896,24.89361 23.175794,24.046931 22.024757,22.88481 20.88478,21.722715 20.314794,20.156635 20.314796,18.186568 c -2e-6,-2.468079 0.796872,-4.366189 2.390625,-5.694336 1.593744,-1.328101 3.884757,-1.992163 6.873049,-1.992188 1.36131,2.5e-5 2.76138,0.105169 4.20019,0.31543 1.43879,0.199243 2.92739,0.503605 4.46582,0.913086"
       inkscape:connector-curvature="0"
       id="path3093"
       style="font-size:34px;font-style:normal;font-weight:bold;line-height:125%;letter-spacing:0px;word-spacing:0px;fill:#00c000;fill-opacity:1;stroke:none;font-family:Sans;-inkscape-font-specification:Sans Bold" />
    <path
       d="m 19.524277,18.086611 0,5.246094 C 18.16293,22.724 16.834806,22.264691 15.539902,21.954775 14.244965,21.6449 13.021984,21.489952 11.870956,21.489931 c -1.527355,2.1e-5 -2.65626,0.210307 -3.386718,0.63086 -0.730478,0.420592 -1.095712,1.073586 -1.095703,1.958984 -9e-6,0.66408 0.243481,1.184262 0.730468,1.560547 0.498038,0.365251 1.394521,0.68068 2.689453,0.946289 l 2.722657,0.547852 c 2.755842,0.5534 4.714824,1.394545 5.876953,2.523437 1.162088,1.128918 1.743142,2.733734 1.743164,4.814453 -2.2e-5,2.733729 -0.813498,4.770186 -2.44043,6.109375 -1.615903,1.328126 -4.089534,1.992187 -7.420898,1.992188 C 9.718277,42.573915 8.14113,42.424501 6.558456,42.125674 4.975768,41.826846 3.393088,41.384138 1.81041,40.797549 l 0,-5.395508 c 1.582678,0.841152 3.11002,1.477544 4.582031,1.90918 1.483064,0.420577 2.910797,0.630863 4.283203,0.630859 1.394518,4e-6 2.462551,-0.232418 3.204101,-0.697266 0.741521,-0.464838 1.112289,-1.1289 1.112305,-1.992187 -1.6e-5,-0.774732 -0.254573,-1.372388 -0.763672,-1.792969 -0.498061,-0.420564 -1.499688,-0.796866 -3.004883,-1.128906 L 8.749863,31.7829 C 6.270689,31.251661 4.455587,30.404982 3.30455,29.242861 2.164573,28.080766 1.594587,26.514687 1.594589,24.544619 c -2e-6,-2.468079 0.796872,-4.366189 2.390625,-5.694336 1.593744,-1.3281 3.884757,-1.992162 6.873047,-1.992187 1.361315,2.5e-5 2.761379,0.105168 4.200195,0.315429 1.438785,0.199244 2.92739,0.503605 4.465821,0.913086"
       inkscape:connector-curvature="0"
       id="path3081"
       style="font-size:34px;font-style:normal;font-weight:bold;line-height:125%;letter-spacing:0px;word-spacing:0px;fill:#ff4040;fill-opacity:1;stroke:none;font-family:Sans;-inkscape-font-specification:Sans Bold" />
    <path
       d="m 17,22.4 1.244484,2.574654 1.279793,-1.641949 L 18,21.4 z"
       inkscape:connector-curvature="0"
       id="path3130"
       style="fill:#ff4040;fill-opacity:1;stroke:none" />
    <path
       d="M 1.81041,35.402041 0.530617,37.04399 2,38.4 3,37.4 1.81041,35.402041"
       inkscape:connector-curvature="0"
       id="path3160"
       style="fill:#ff4040;fill-opacity:1;stroke:none" />
    <path
       d="m 18.244484,19.72856 0,5.246094 c -1.361347,-0.608705 -2.689471,-1.068014 -3.984375,-1.37793 -1.294937,-0.309875 -2.517918,-0.464823 -3.668945,-0.464844 -1.527355,2.1e-5 -2.65626,0.210307 -3.386719,0.63086 -0.730477,0.420592 -1.095711,1.073586 -1.095703,1.958984 -8e-6,0.66408 0.243481,1.184262 0.730469,1.560547 0.498037,0.36525 1.39452,0.68068 2.689453,0.946289 l 2.722656,0.547851 c 2.755842,0.5534 4.714825,1.394545 5.876953,2.523438 1.162088,1.128917 1.743142,2.733734 1.743164,4.814453 -2.2e-5,2.733729 -0.813498,4.770185 -2.44043,6.109375 -1.615903,1.328125 -4.089533,1.992187 -7.420898,1.992188 C 8.438484,44.215864 6.861337,44.06645 5.278664,43.767622 3.695976,43.468795 2.113295,43.026087 0.530617,42.439497 l 0,-5.395507 c 1.582678,0.841151 3.11002,1.477544 4.582031,1.909179 1.483064,0.420578 2.910797,0.630864 4.283203,0.63086 1.394518,4e-6 2.462551,-0.232418 3.204102,-0.697266 0.741521,-0.464838 1.112289,-1.1289 1.112304,-1.992187 -1.5e-5,-0.774732 -0.254572,-1.372388 -0.763671,-1.792969 -0.498062,-0.420564 -1.499689,-0.796866 -3.004883,-1.128906 L 7.47007,33.424849 C 4.990896,32.89361 3.175794,32.046931 2.024757,30.88481 0.88478,29.722715 0.314794,28.156635 0.314796,26.186568 c -2e-6,-2.468079 0.796872,-4.366189 2.390625,-5.694336 1.593744,-1.328101 3.884757,-1.992163 6.873047,-1.992188 1.361315,2.5e-5 2.761379,0.105169 4.200196,0.31543 1.438784,0.199243 2.92739,0.503605 4.46582,0.913086"
       inkscape:connector-curvature="0"
       id="path3090"
       style="font-size:34px;font-style:normal;font-weight:bold;line-height:125%;letter-spacing:0px;word-spacing:0px;fill:#c00000;fill-opacity:1;stroke:none;font-family:Sans;-inkscape-font-specification:Sans Bold" />
    <rect
       width="14"
       height="34"
       x="29"
       y="29"
       id="rect2998-6"
       style="fill:#fffc00;fill-opacity:1;fill-rule:evenodd;stroke:#a2a000;stroke-width:2;stroke-linecap:butt;stroke-linejoin:miter;stroke-miterlimit:4;stroke-opacity:1;stroke-dasharray:none;stroke-dashoffset:0" />
    <rect
       width="14"
       height="34"
       x="49"
       y="29"
       id="rect2998-6-9"
       style="fill:#fffc00;fill-opacity:1;fill-rule:evenodd;stroke:#a2a000;stroke-width:2;stroke-linecap:butt;stroke-linejoin:miter;stroke-miterlimit:4;stroke-opacity:1;stroke-dasharray:none;stroke-dashoffset:0" />
  </g>
</svg>
