<?xml version="1.0" encoding="UTF-8" standalone="no"?>
<svg
   xmlns:dc="http://purl.org/dc/elements/1.1/"
   xmlns:cc="http://creativecommons.org/ns#"
   xmlns:rdf="http://www.w3.org/1999/02/22-rdf-syntax-ns#"
   xmlns:svg="http://www.w3.org/2000/svg"
   xmlns="http://www.w3.org/2000/svg"
   xmlns:xlink="http://www.w3.org/1999/xlink"
   id="svg2995"
   height="64"
   width="64"
   version="1.1">
  <defs
     id="defs2997">
    <radialGradient
       gradientTransform="matrix(-0.18975551,-0.22783095,0.10741839,-0.08946607,58.038904,170.49404)"
       gradientUnits="userSpaceOnUse"
       id="radialGradient4028"
       r="80.999001"
       cy="494.07001"
       cx="432.35001">
      <stop
         offset="0"
         style="stop-color:#ffffff;stop-opacity:1"
         id="stop4024" />
      <stop
         offset="1"
         style="stop-color:#ffffff;stop-opacity:0"
         id="stop4026" />
    </radialGradient>
    <radialGradient
       gradientTransform="matrix(-0.00783582,9.4011875e-4,-9.4011875e-4,-0.00783582,36.633835,36.094607)"
       gradientUnits="userSpaceOnUse"
       id="radialGradient4001"
       r="257.14001"
       cy="834.63"
       cx="498.44">
      <stop
         offset="0"
         style="stop-color:#ffffff;stop-opacity:1"
         id="stop3997" />
      <stop
         offset="1"
         style="stop-color:#ffffff;stop-opacity:0"
         id="stop3999" />
    </radialGradient>
    <radialGradient
       gradientTransform="matrix(-4.8951802e-4,-0.01802162,0.10834582,-0.00294288,-5.4794986,20.103181)"
       gradientUnits="userSpaceOnUse"
       id="radialGradient3957"
       r="198.64"
       cy="349.48001"
       cx="404.07001">
      <stop
         offset="0"
         style="stop-color:#ffffff;stop-opacity:1"
         id="stop3953" />
      <stop
         offset="1"
         style="stop-color:#ffffff;stop-opacity:0"
         id="stop3955" />
    </radialGradient>
    <radialGradient
       gradientTransform="matrix(0.01249172,0.09703937,-0.10108131,0.01301149,61.913724,-37.410498)"
       gradientUnits="userSpaceOnUse"
       id="radialGradient3949"
       r="198.14"
       cy="347.42001"
       cx="423.57001">
      <stop
         offset="0"
         style="stop-color:#ffffff;stop-opacity:1"
         id="stop3945" />
      <stop
         offset="1"
         style="stop-color:#ffffff;stop-opacity:0"
         id="stop3947" />
    </radialGradient>
    <radialGradient
       gradientTransform="matrix(4.1681241e-6,-0.07817465,0.06639785,3.3481956e-6,18.709069,78.153324)"
       gradientUnits="userSpaceOnUse"
       xlink:href="#linearGradient3908"
       id="radialGradient3918"
       r="259.81"
       cy="202.94"
       cx="463.04999" />
    <linearGradient
       id="linearGradient3908">
      <stop
         offset="0"
         style="stop-color:#ffffff;stop-opacity:1"
         id="stop3910" />
      <stop
         offset="0.90625"
         style="stop-color:#ffffff;stop-opacity:0"
         id="stop3924" />
      <stop
         offset="1"
         style="stop-color:#ffffff;stop-opacity:1"
         id="stop3912" />
    </linearGradient>
    <radialGradient
       gradientTransform="matrix(-0.02941533,-0.01524873,0.02082037,-0.04016321,39.51079,56.903668)"
       gradientUnits="userSpaceOnUse"
       xlink:href="#linearGradient3991"
       id="radialGradient3983"
       r="257.14001"
       cy="531.78003"
       cx="229.97" />
    <linearGradient
       id="linearGradient3961">
      <stop
         offset="0"
         style="stop-color:#acacac;stop-opacity:1"
         id="stop3963" />
      <stop
         offset="1"
         style="stop-color:#000000;stop-opacity:0"
         id="stop3965" />
    </linearGradient>
    <radialGradient
       gradientTransform="matrix(3.693398e-6,-0.07817398,0.0663956,3.3453515e-6,16.963564,78.25877)"
       gradientUnits="userSpaceOnUse"
       id="radialGradient3914"
       r="259.81"
       cy="229.23"
       cx="464.39999">
      <stop
         offset="0"
         style="stop-color:#ffffff;stop-opacity:1"
         id="stop3928" />
      <stop
         offset="0.61234999"
         style="stop-color:#ffffff;stop-opacity:0"
         id="stop3930" />
      <stop
         offset="1"
         style="stop-color:#ffffff;stop-opacity:1"
         id="stop3932" />
    </radialGradient>
    <radialGradient
       gradientTransform="matrix(0,0.02495114,0.04523906,-2.0812221e-8,7.8467586,15.3526)"
       gradientUnits="userSpaceOnUse"
       xlink:href="#linearGradient3961"
       id="radialGradient3979"
       r="257.14001"
       cy="538.01001"
       cx="202.50999" />
    <radialGradient
       gradientTransform="matrix(4.0597965e-6,-0.07829972,0.06650138,3.3527104e-6,13.886493,78.499568)"
       gradientUnits="userSpaceOnUse"
       xlink:href="#linearGradient3908"
       id="radialGradient3916"
       r="259.39999"
       cy="275.13"
       cx="466.73001" />
    <radialGradient
       gradientTransform="matrix(0.02208165,-0.01241766,-0.02217482,-0.0394317,27.18576,56.654139)"
       gradientUnits="userSpaceOnUse"
       xlink:href="#linearGradient3961"
       id="radialGradient3981"
       r="257.14001"
       cy="467.48999"
       cx="240.64" />
    <linearGradient
       id="linearGradient3991">
      <stop
         offset="0"
         style="stop-color:#a5a5a5;stop-opacity:1"
         id="stop3993" />
      <stop
         offset="1"
         style="stop-color:#000000;stop-opacity:0"
         id="stop3995" />
    </linearGradient>
    <radialGradient
       gradientTransform="matrix(-0.014075,0.74261,-0.99982,-0.018948,764.36,-49.514)"
       gradientUnits="userSpaceOnUse"
       id="radialGradient3850"
       r="257.14001"
       cy="291.37"
       cx="466.48001">
      <stop
         offset="0"
         style="stop-color:#ffffff;stop-opacity:1"
         id="stop3846" />
      <stop
         offset="1"
         style="stop-color:#ffffff;stop-opacity:0"
         id="stop3848" />
    </radialGradient>
    <radialGradient
       gradientTransform="matrix(-0.66724,1.3468,-2.1729,-1.0765,1325.7,336.88)"
       gradientUnits="userSpaceOnUse"
       id="radialGradient3786"
       r="257.14001"
       cy="367.39001"
       cx="316.31">
      <stop
         offset="0"
         style="stop-color:#003380;stop-opacity:1"
         id="stop3790" />
      <stop
         offset="1"
         style="stop-color:#0066ff;stop-opacity:1"
         id="stop3792" />
    </radialGradient>
    <filter
       id="filter3818"
       color-interpolation-filters="sRGB"
       height="1.5976"
       width="1.5976"
       y="-0.29879999"
       x="-0.29879999">
      <feGaussianBlur
         id="feGaussianBlur3820"
         stdDeviation="64.027538" />
    </filter>
    <radialGradient
       gradientTransform="matrix(-0.02780254,0.07321894,-0.13728111,-0.05212851,79.905222,14.625941)"
       gradientUnits="userSpaceOnUse"
       id="radialGradient3769"
       r="257.14001"
       cy="201.21001"
       cx="424.67999">
      <stop
         offset="0"
         style="stop-color:#00112b;stop-opacity:1"
         id="stop3987" />
      <stop
         offset="1"
         style="stop-color:#000000;stop-opacity:1"
         id="stop3989" />
    </radialGradient>
    <radialGradient
       gradientTransform="matrix(0.00264114,-0.10521774,-0.14684627,-0.00368763,36.921228,-438.26901)"
       gradientUnits="userSpaceOnUse"
       id="radialGradient3737"
       r="257.14001"
       cy="-49.370998"
       cx="-4657.8999">
      <stop
         offset="0"
         style="stop-color:#ffffff;stop-opacity:1"
         id="stop3751" />
      <stop
         offset="1"
         style="stop-color:#333333;stop-opacity:1"
         id="stop3753" />
    </radialGradient>
    <radialGradient
       gradientTransform="matrix(0.00276988,0.11034686,-0.15400469,0.00386739,37.152121,525.27178)"
       gradientUnits="userSpaceOnUse"
       id="radialGradient3721"
       r="257.14001"
       cy="-49.370998"
       cx="-4657.8999">
      <stop
         offset="0"
         style="stop-color:#ffffff;stop-opacity:1"
         id="stop3731" />
      <stop
         offset="1"
         style="stop-color:#000000;stop-opacity:0"
         id="stop3733" />
    </radialGradient>
    <radialGradient
       gradientTransform="matrix(-0.03118837,-0.02000778,0.05652578,-0.08811405,33.386702,127.27343)"
       gradientUnits="userSpaceOnUse"
       id="radialGradient3755"
       r="257.14001"
       cy="744.47998"
       cx="733.10999">
      <stop
         offset="0"
         style="stop-color:#515151;stop-opacity:1"
         id="stop3759" />
      <stop
         offset="1"
         style="stop-color:#191919;stop-opacity:1"
         id="stop3761" />
    </radialGradient>
    <radialGradient
       gradientTransform="matrix(-6.5842643e-7,0.14263436,-0.192782,0,86.617068,-61.891523)"
       gradientUnits="userSpaceOnUse"
       id="radialGradient2929"
       r="257.14001"
       cy="282.32999"
       cx="466.25">
      <stop
         offset="0"
         style="stop-color:#cccccc;stop-opacity:1"
         id="stop3705" />
      <stop
         offset="1"
         style="stop-color:#1a1a1a;stop-opacity:1"
         id="stop3707" />
    </radialGradient>
    <radialGradient
       gradientTransform="matrix(-6.9264677e-7,0.15004748,-0.20280141,0,89.443852,-66.775937)"
       gradientUnits="userSpaceOnUse"
       id="radialGradient2925"
       r="257.14001"
       cy="282.32999"
       cx="466.25">
      <stop
         offset="0"
         style="stop-color:#ffffff;stop-opacity:1"
         id="stop2921" />
      <stop
         offset="1"
         style="stop-color:#cccccc;stop-opacity:0"
         id="stop2923" />
    </radialGradient>
    <radialGradient
       gradientTransform="matrix(6.2962e-8,1.1451,-1.7493,2.5402e-5,945.99,-255.75)"
       gradientUnits="userSpaceOnUse"
       id="radialGradient2915"
       r="257.14001"
       cy="276.19"
       cx="468.64999">
      <stop
         offset="0"
         style="stop-color:#4d4d4d;stop-opacity:1"
         id="stop2911" />
      <stop
         offset="1"
         style="stop-color:#000000;stop-opacity:1"
         id="stop2913" />
    </radialGradient>
    <radialGradient
       gradientTransform="matrix(0,0.13758097,-0.21017415,3.0519886e-6,90.2334,-63.337022)"
       gradientUnits="userSpaceOnUse"
       xlink:href="#radialGradient2915"
       id="radialGradient4089"
       r="257.14001"
       cy="276.19"
       cx="468.64999" />
    <radialGradient
       gradientTransform="matrix(-0.00104503,0.05513663,-0.07423372,-0.00140685,54.570902,-11.58849)"
       gradientUnits="userSpaceOnUse"
       xlink:href="#radialGradient3850"
       id="radialGradient4091"
       r="257.14001"
       cy="291.37"
       cx="466.48001" />
    <radialGradient
       gradientTransform="matrix(-0.00102843,-0.05426098,-0.0730548,0.0013845,54.215865,74.972077)"
       gradientUnits="userSpaceOnUse"
       xlink:href="#radialGradient3850"
       id="radialGradient4093"
       r="257.14001"
       cy="291.37"
       cx="466.48001" />
    <radialGradient
       gradientTransform="matrix(-0.00101182,0.05338457,-0.07187482,-0.00136213,53.860045,-10.201813)"
       gradientUnits="userSpaceOnUse"
       xlink:href="#radialGradient3850"
       id="radialGradient4095"
       r="257.14001"
       cy="291.37"
       cx="466.48001" />
    <radialGradient
       gradientTransform="matrix(-9.9522669e-4,-0.05250894,-0.07069588,0.00133978,53.505007,73.586409)"
       gradientUnits="userSpaceOnUse"
       xlink:href="#radialGradient3850"
       id="radialGradient4097"
       r="257.14001"
       cy="291.37"
       cx="466.48001" />
    <radialGradient
       gradientTransform="matrix(-9.7861642e-4,0.05163251,-0.06951593,-0.00131742,53.148182,-8.816147)"
       gradientUnits="userSpaceOnUse"
       xlink:href="#radialGradient3850"
       id="radialGradient4099"
       r="257.14001"
       cy="291.37"
       cx="466.48001" />
    <linearGradient
       gradientUnits="userSpaceOnUse"
       xlink:href="#linearGradient3893-4"
       id="linearGradient3899-5"
       y2="338.88824"
       x2="217.41812"
       y1="338.88824"
       x1="-211.72321" />
    <linearGradient
       id="linearGradient3893-4">
      <stop
         offset="0"
         style="stop-color:#7d7d7d;stop-opacity:1"
         id="stop3895-4" />
      <stop
         offset="1"
         style="stop-color:#868686;stop-opacity:1"
         id="stop3897-3" />
    </linearGradient>
    <linearGradient
       gradientUnits="userSpaceOnUse"
       xlink:href="#linearGradient3961"
       id="linearGradient3956"
       y2="338.88824"
       x2="217.41812"
       y1="338.88824"
       x1="-211.72321" />
    <linearGradient
       gradientTransform="translate(-4e-4,-0.09426)"
       gradientUnits="userSpaceOnUse"
       id="linearGradient2800-5"
       y2="52.511002"
       x2="14"
       y1="15.292"
       x1="15.09">
      <stop
         offset="0"
         style="stop-color:#ffffff;stop-opacity:1"
         id="stop3083-8" />
      <stop
         offset="1"
         style="stop-color:#ffffff;stop-opacity:0"
         id="stop3085-2" />
    </linearGradient>
    <linearGradient
       gradientTransform="matrix(1,0,0,1.0044,-145,-71.462)"
       gradientUnits="userSpaceOnUse"
       id="linearGradient2803-0"
       y2="93.205002"
       x2="169"
       y1="110.34"
       x1="169">
      <stop
         offset="0"
         style="stop-color:#babdb6;stop-opacity:1"
         id="stop2699-8" />
      <stop
         offset="1"
         style="stop-color:#555753;stop-opacity:1"
         id="stop2701-7" />
    </linearGradient>
    <radialGradient
       gradientTransform="matrix(3.5623e-6,-1.072,1.9921,-1.2507e-6,-175.61,212.69)"
       gradientUnits="userSpaceOnUse"
       id="radialGradient2809-9"
       r="11"
       cy="100.2"
       cx="169.77">
      <stop
         offset="0"
         style="stop-color:#f7f7f7;stop-opacity:1"
         id="stop2681-1" />
      <stop
         offset="1"
         style="stop-color:#ccd0c7;stop-opacity:1"
         id="stop2683-6" />
    </radialGradient>
    <linearGradient
       gradientTransform="matrix(1.1033,0,0,1.0549,-163.12,-76.311)"
       gradientUnits="userSpaceOnUse"
       id="linearGradient2823-8"
       y2="105.49"
       x2="174.75"
       y1="84.263"
       x1="174.83">
      <stop
         offset="0"
         style="stop-color:#000000;stop-opacity:1"
         id="stop2819-2" />
      <stop
         offset="1"
         style="stop-color:#ffffff;stop-opacity:0.48453999"
         id="stop2821-7" />
    </linearGradient>
    <linearGradient
       gradientTransform="matrix(1.1033,0,0,1.0549,-163.12,-76.311)"
       gradientUnits="userSpaceOnUse"
       xlink:href="#linearGradient2823-8"
       id="linearGradient5201"
       y2="105.49"
       x2="174.75"
       y1="84.263"
       x1="174.83" />
    <radialGradient
       gradientTransform="matrix(3.5623e-6,-1.072,1.9921,-1.2507e-6,-175.61,212.69)"
       gradientUnits="userSpaceOnUse"
       xlink:href="#radialGradient2809-9"
       id="radialGradient5203"
       r="11"
       cy="100.2"
       cx="169.77" />
    <linearGradient
       gradientTransform="matrix(1,0,0,1.0044,-145,-71.462)"
       gradientUnits="userSpaceOnUse"
       xlink:href="#linearGradient2803-0"
       id="linearGradient5205"
       y2="93.205002"
       x2="169"
       y1="110.34"
       x1="169" />
    <linearGradient
       gradientTransform="translate(-4e-4,-0.09426)"
       gradientUnits="userSpaceOnUse"
       xlink:href="#linearGradient2800-5"
       id="linearGradient5207"
       y2="52.511002"
       x2="14"
       y1="15.292"
       x1="15.09" />
    <linearGradient
       gradientTransform="matrix(1.1033,0,0,1.0549,-163.12,-76.311)"
       gradientUnits="userSpaceOnUse"
       xlink:href="#linearGradient2823-8"
       id="linearGradient5209"
       y2="105.49"
       x2="174.75"
       y1="84.263"
       x1="174.83" />
    <radialGradient
       gradientTransform="matrix(3.5623e-6,-1.072,1.9921,-1.2507e-6,-175.61,212.69)"
       gradientUnits="userSpaceOnUse"
       xlink:href="#radialGradient2809-9"
       id="radialGradient5211"
       r="11"
       cy="100.2"
       cx="169.77" />
    <linearGradient
       gradientTransform="matrix(1,0,0,1.0044,-145,-71.462)"
       gradientUnits="userSpaceOnUse"
       xlink:href="#linearGradient2803-0"
       id="linearGradient5213"
       y2="93.205002"
       x2="169"
       y1="110.34"
       x1="169" />
    <linearGradient
       gradientTransform="translate(-4e-4,-0.09426)"
       gradientUnits="userSpaceOnUse"
       xlink:href="#linearGradient2800-5"
       id="linearGradient5215"
       y2="52.511002"
       x2="14"
       y1="15.292"
       x1="15.09" />
  </defs>
  <metadata
     id="metadata3000">
    <rdf:RDF>
      <cc:Work
         rdf:about="">
        <dc:format>image/svg+xml</dc:format>
        <dc:type
           rdf:resource="http://purl.org/dc/dcmitype/StillImage" />
        <dc:title />
      </cc:Work>
    </rdf:RDF>
  </metadata>
  <path
     style="fill:url(#radialGradient4089)"
     id="path2818"
     d="m 63.081252,32.039726 c 0,17.063356 -13.832582,30.894742 -30.894742,30.894742 -17.063358,0 -30.8947422,-13.832579 -30.8947422,-30.894742 0,-17.063359 13.8325922,-30.8947447 30.8947422,-30.8947447 17.06216,-0.00121 30.894742,13.8313857 30.894742,30.8947447 z" />
  <path
     id="path2820"
     d="m 62.061293,32.038782 c 0,16.50031 -13.37616,29.875316 -29.875314,29.875316 -16.500322,0 -29.8753123,-13.37616 -29.8753123,-29.875316 0,-16.500323 13.3761453,-29.8753263 29.8753123,-29.8753263 16.499154,-0.00116 29.875314,13.3750033 29.875314,29.8753263 z" />
  <path
     style="fill:url(#radialGradient2925)"
     id="path2917"
     d="m 61.041335,32.038132 c 0,15.937287 -12.91973,28.855886 -28.855886,28.855886 -15.937286,0 -28.8558982,-12.919728 -28.8558982,-28.855886 0,-15.937284 12.9197282,-28.8558853 28.8558982,-28.8558853 15.936156,-0.00112 28.855886,12.9186013 28.855886,28.8558853 z" />
  <path
     style="fill:url(#radialGradient2929)"
     id="path2927"
     d="m 59.617776,32.040629 c 0,15.149901 -12.281416,27.430257 -27.430257,27.430257 -15.149892,0 -27.4302573,-12.281429 -27.4302573,-27.430257 0,-15.149903 12.2814293,-27.430258 27.4302573,-27.430258 15.148841,-0.00107 27.430257,12.280355 27.430257,27.430258 z" />
  <path
     style="fill:url(#radialGradient3755)"
     id="path3709"
     d="m 59.104129,32.037509 c 0,14.867659 -12.052626,26.919236 -26.919237,26.919236 -14.867649,0 -26.9192245,-12.052623 -26.9192245,-26.919236 0,-14.867662 12.0526245,-26.9192238 26.9192245,-26.9192238 14.866611,-0.00106 26.919237,12.0515618 26.919237,26.9192238 z" />
  <path
     style="fill:url(#radialGradient3721)"
     id="path3713"
     d="m 54.112168,32.038901 c 0,12.109925 -9.817048,21.92612 -21.926122,21.92612 -12.109937,0 -21.92612,-9.817046 -21.92612,-21.92612 0,-12.109936 9.817033,-21.926132 21.92612,-21.926132 12.109074,-8.1e-4 21.926122,9.816196 21.926122,21.926132 z" />
  <path
     style="fill:url(#radialGradient3737)"
     id="path3735"
     d="m 53.092936,32.037483 c 0,-11.547034 -9.360733,-20.906957 -20.906957,-20.906957 -11.547033,0 -20.906957,9.360733 -20.906957,20.906957 0,11.547044 9.360734,20.906956 20.906957,20.906956 11.546224,8.1e-4 20.906957,-9.359912 20.906957,-20.906956 z" />
  <path
     style="fill:url(#radialGradient3769)"
     id="path3739"
     d="m 52.3799,32.038743 c 0,11.153062 -9.041348,20.193626 -20.193615,20.193626 -11.153062,0 -20.193627,-9.041346 -20.193627,-20.193626 0,-11.153051 9.041347,-20.193613 20.193627,-20.193613 11.152267,-8.12e-4 20.193615,9.040562 20.193615,20.193613 z" />
  <path
     style="fill:url(#radialGradient3786);filter:url(#filter3818)"
     id="path3784"
     transform="matrix(-0.05395786,0,0,-0.05395786,57.160405,61.071992)"
     d="M 720,538.08 C 720,680.1 604.87,795.22 462.86,795.22 320.84,795.22 205.72,680.09 205.72,538.08 205.72,396.06 320.85,280.94 462.86,280.94 604.87,280.93 720,396.06 720,538.08 z" />
  <path
     style="fill:none;stroke:url(#radialGradient4091);stroke-width:0.30574211"
     id="path3842"
     d="m 51.277303,32.03865 c 0,10.544582 -8.548068,19.091901 -19.091907,19.091901 -10.544572,0 -19.091888,-8.548062 -19.091888,-19.091901 0,-10.544571 8.548061,-19.091888 19.091888,-19.091888 10.543839,-7.15e-4 19.091907,8.547317 19.091907,19.091888 z" />
  <path
     style="fill:none;stroke:url(#radialGradient4093);stroke-width:0.30088645"
     id="path3852"
     d="m 50.974571,32.037788 c 0,-10.377111 -8.412319,-18.788686 -18.788685,-18.788686 -10.377109,0 -18.788696,8.412305 -18.788696,18.788686 0,10.377109 8.412317,18.788695 18.788696,18.788695 10.376366,7.19e-4 18.788685,-8.411586 18.788685,-18.788695 z" />
  <path
     style="fill:#00112b"
     id="path3977"
     d="m 32.185966,43.671113 c 6.42485,0 11.632768,-5.208384 11.632768,-11.632768 0,-6.42485 -5.20837,-11.632766 -11.632768,-11.632766 -6.42485,0 -11.632768,5.208368 -11.632768,11.632766 -3.98e-4,6.424384 5.207918,11.632768 11.632768,11.632768 z" />
  <path
     style="opacity:0.67099567;color:#000000;fill:url(#linearGradient3899-5);fill-opacity:1;fill-rule:nonzero;stroke:#000000;stroke-width:0.05000004;stroke-linecap:butt;stroke-linejoin:miter;stroke-miterlimit:4;stroke-opacity:1;stroke-dasharray:none;stroke-dashoffset:0;marker:none;visibility:visible;display:inline;overflow:visible;enable-background:accumulate"
     id="path3123"
     transform="matrix(0.10146421,0,0,0.10056245,31.941454,-2.3784727)"
     d="m 217.35562,338.88824 a 214.50816,214.50816 0 1 1 -429.01633,0 214.50816,214.50816 0 1 1 429.01633,0 z" />
  <path
     style="fill:none;stroke:url(#radialGradient4095);stroke-width:0.29602659"
     id="path3856"
     d="m 50.671112,32.039008 c 0,10.209503 -8.276439,18.485214 -18.485226,18.485214 -10.209502,0 -18.485213,-8.276428 -18.485213,-18.485214 0,-10.209504 8.276439,-18.485215 18.485213,-18.485215 10.208787,-7.15e-4 18.485226,8.275711 18.485226,18.485215 z" />
  <path
     style="opacity:0.33333333;color:#000000;fill:url(#linearGradient3956);fill-opacity:1;fill-rule:nonzero;stroke:#000000;stroke-width:0.05000004;stroke-linecap:butt;stroke-linejoin:miter;stroke-miterlimit:4;stroke-opacity:1;stroke-dasharray:none;stroke-dashoffset:0;marker:none;visibility:visible;display:inline;overflow:visible;enable-background:accumulate"
     id="path3123-1"
     transform="matrix(0.10146421,0,0,0.10056245,32.041835,-2.4101813)"
     d="m 217.35562,338.88824 a 214.50816,214.50816 0 1 1 -429.01633,0 214.50816,214.50816 0 1 1 429.01633,0 z" />
  <path
     style="fill:none;stroke:url(#radialGradient4097);stroke-width:0.29117098"
     id="path3860"
     d="m 50.368379,32.038464 c 0,-10.042044 -8.140675,-18.182022 -18.182014,-18.182022 -10.042033,0 -18.18201,8.140682 -18.18201,18.182022 0,10.04203 8.140683,18.18201 18.18201,18.18201 10.041339,7.04e-4 18.182014,-8.13998 18.182014,-18.18201 z" />
  <path
     style="fill:none;stroke:url(#radialGradient4099);stroke-width:0.28631112"
     id="path3864"
     d="m 50.063896,32.038345 c 0,9.874425 -8.004806,17.87854 -17.878541,17.87854 -9.874423,0 -17.878541,-8.004819 -17.878541,-17.87854 0,-9.874439 8.004807,-17.878541 17.878541,-17.878541 9.873735,-7.15e-4 17.878541,8.004102 17.878541,17.878541 z" />
  <path
     style="opacity:0.24490003;fill:#ffffff"
     id="path3771"
     d="m 32.18716,11.844002 c -11.152558,0 -20.19547,9.042396 -20.19547,20.195471 0,6.546096 3.114722,12.365335 7.943046,16.054655 -0.713051,-2.065806 -1.098738,-4.284497 -1.098738,-6.592667 0,-11.152558 9.039236,-20.191396 20.191384,-20.191396 4.605743,0 8.85153,1.541366 12.249176,4.137139 C 48.544213,17.531465 41.031031,11.844613 32.186854,11.844613 z" />
  <path
     style="fill:url(#radialGradient3981)"
     id="path3969"
     d="m 43.818801,32.038624 c 0,-6.42485 -5.20837,-11.632768 -11.63277,-11.632768 -6.424848,0 -11.632766,5.20837 -11.632766,11.632768 0,6.424848 5.208369,11.632766 11.632766,11.632766 6.4244,4e-4 11.63277,-5.207918 11.63277,-11.632766 z" />
  <path
     style="fill:none;stroke:url(#radialGradient3916);stroke-width:0.20382901"
     id="path3896"
     d="m 20.552468,32.038624 c 0,-6.42485 5.208369,-11.632768 11.632768,-11.632768 6.424837,0 11.632753,5.20837 11.632753,11.632768 0,6.424848 -5.208368,11.632766 -11.632753,11.632766 -6.424399,4e-4 -11.632768,-5.207918 -11.632768,-11.632766 z" />
  <path
     style="fill:url(#radialGradient3979)"
     id="path3973"
     d="m 32.185966,43.671113 c 6.42485,0 11.632768,-5.208384 11.632768,-11.632768 0,-6.42485 -5.20837,-11.632766 -11.632768,-11.632766 -6.42485,0 -11.632768,5.208368 -11.632768,11.632766 -3.98e-4,6.424384 5.207918,11.632768 11.632768,11.632768 z" />
  <path
     style="fill:none;stroke:url(#radialGradient3914);stroke-width:0.20383172"
     id="path3900"
     d="m 22.370712,32.038345 c 0,-5.420488 4.394181,-9.8143 9.814299,-9.8143 5.420501,0 9.814298,4.394184 9.814298,9.8143 0,5.420503 -4.39418,9.814312 -9.814298,9.814312 -5.420118,3.97e-4 -9.814299,-4.393809 -9.814299,-9.814312 z" />
  <path
     style="fill:url(#radialGradient3983);fill-opacity:1"
     id="path3959"
     d="m 20.552468,32.038624 c 0,-6.42485 5.208369,-11.632768 11.632768,-11.632768 6.424837,0 11.632753,5.20837 11.632753,11.632768 0,6.424848 -5.208368,11.632766 -11.632753,11.632766 -6.424399,4e-4 -11.632768,-5.207918 -11.632768,-11.632766 z" />
  <path
     style="fill:none;stroke:url(#radialGradient3918);stroke-width:0.18707342"
     id="path3904"
     d="m 23.177755,32.038093 c 0,-4.97485 4.03291,-9.007403 9.007401,-9.007403 4.974851,0 9.007414,4.032912 9.007414,9.007403 0,4.974849 -4.03291,9.007414 -9.007414,9.007414 -4.974491,3.06e-4 -9.007401,-4.032565 -9.007401,-9.007414 z" />
  <path
     style="fill:url(#radialGradient3957);stroke:url(#radialGradient3949);stroke-width:0.10191497"
     id="path3934"
     d="m 32.18716,11.844002 c -11.152558,0 -20.19547,9.042396 -20.19547,20.195471 0,11.152557 9.042408,20.191395 20.19547,20.191395 11.152559,0 20.191399,-9.039249 20.191399,-20.191395 0,-11.152148 -9.039251,-20.195471 -20.191399,-20.195471 z m 0,2.242123 c 9.914387,0 17.949263,8.038552 17.949263,17.953348 0,9.914385 -8.035381,17.949259 -17.949263,17.949259 -9.914398,0 -17.953348,-8.035379 -17.953348,-17.949259 0,-9.914398 8.038553,-17.953348 17.953348,-17.953348 z" />
  <path
     style="fill:url(#radialGradient4001)"
     id="path3993"
     d="m 30.438349,32.038279 c 0,-0.964919 0.782219,-1.747071 1.747074,-1.747071 0.964918,0 1.747084,0.782219 1.747084,1.747071 0,0.964918 -0.782232,1.747083 -1.747084,1.747083 -0.964855,6.7e-5 -1.747074,-0.782165 -1.747074,-1.747083 z" />
  <path
     style="fill:none"
     id="path4075"
     d="m 55.334662,32.03857 c 0,12.785286 -10.364525,23.148919 -23.148921,23.148919 -12.785286,0 -23.1489086,-10.364536 -23.1489086,-23.148919 0,-12.785286 10.3645256,-23.1489058 23.1489086,-23.1489058 C 44.970137,8.8887387 55.334662,19.253284 55.334662,32.03857 z" />
  <g
     style="font-size:40px;text-align:center;text-anchor:middle;opacity:0.38528137;fill:#ffffff;font-family:Bitstream Vera Sans"
     id="text4005"
     transform="matrix(0,0.10191498,-0.10191498,0,86.406935,-15.556867)">
    <path
       id="path4389"
       d="m 358.198,756.17251 1.08254,-2.46623 c 0.75831,0.88031 1.51365,1.61997 2.26601,2.21899 0.75239,0.599 1.52501,1.07252 2.31786,1.42055 1.3771,0.60445 2.55844,0.80446 3.54402,0.60004 0.97726,-0.20811 1.68202,-0.80457 2.1143,-1.78938 0.36268,-0.82626 0.39123,-1.56028 0.0856,-2.20205 -0.31757,-0.63712 -1.1123,-1.38909 -2.38417,-2.25593 l -1.38994,-0.98338 c -1.72864,-1.18681 -2.83982,-2.43106 -3.33355,-3.73275 -0.5057,-1.29701 -0.42519,-2.705 0.24154,-4.22397 0.79497,-1.81107 2.00686,-2.91655 3.63565,-3.31644 1.62048,-0.40355 3.60332,-0.0906 5.94853,0.93879 0.88467,0.38833 1.78381,0.90244 2.69739,1.54235 0.90526,0.63625 1.80593,1.38496 2.70203,2.24614 l -1.14298,2.60394 c -0.77378,-1.02647 -1.58897,-1.9019 -2.44558,-2.62629 -0.85659,-0.72439 -1.76062,-1.2954 -2.71206,-1.71303 -1.44384,-0.63377 -2.68258,-0.83907 -3.71623,-0.61591 -1.03362,0.22317 -1.78123,0.86055 -2.24283,1.91214 -0.40296,0.91805 -0.43425,1.76036 -0.0939,2.52692 0.33206,0.7629 1.08394,1.55579 2.25564,2.37868 l 1.40795,0.97636 c 1.72134,1.20349 2.82764,2.39084 3.31888,3.56207 0.49127,1.1712 0.42367,2.47039 -0.20278,3.89756 -0.72534,1.65249 -1.87688,2.69985 -3.4546,3.14209 -1.58605,0.43855 -3.40146,0.20906 -5.44624,-0.68845 -0.87631,-0.38468 -1.73452,-0.85595 -2.57465,-1.41382 -0.84008,-0.55789 -1.66625,-1.20422 -2.4785,-1.93899" />
    <path
       id="path4391"
       d="m 351.9198,753.78886 -2.46076,-1.25369 9.26614,-18.18771 2.46076,1.25369 -9.26614,18.18771" />
    <path
       id="path4393"
       d="m 343.23769,749.40489 -3.52395,-2.1253 2.71324,-14.58497 -11.65775,9.19051 -3.52395,-2.12531 10.54179,-17.47927 2.30637,1.39098 -9.25672,15.34851 11.73765,-9.27005 2.37662,1.43335 -2.7229,14.70687 9.25673,-15.3485 2.29467,1.38392 -10.5418,17.47926" />
    <path
       id="path4395"
       d="m 320.33928,732.08498 4.53707,-6.18407 -2.79992,-2.05422 c -1.03618,-0.76022 -2.034,-1.07968 -2.99346,-0.95836 -0.95944,0.12131 -1.8031,0.67801 -2.53099,1.67011 -0.72246,0.98474 -0.99756,1.95293 -0.82531,2.90456 0.17229,0.95161 0.77652,1.80753 1.81269,2.56776 l 2.79992,2.05422 m 0.88419,3.46353 -5.02663,-3.68788 c -1.84454,-1.35331 -2.92983,-2.79391 -3.25586,-4.3218 -0.33872,-1.52595 0.0823,-3.09362 1.26304,-4.70302 1.19157,-1.6241 2.56597,-2.5036 4.12321,-2.6385 1.54993,-0.14029 3.24717,0.46621 5.09172,1.81952 l 2.79992,2.05421 4.85247,-6.61398 2.22671,1.63367 -12.07458,16.45778" />
    <path
       id="path4397"
       d="m 306.58911,724.47556 -2.10486,-1.78791 11.70996,-13.78582 -7.57543,-6.43472 1.50468,-1.77142 9.68029,8.22263 -13.21464,15.55724" />
    <path
       id="path4399"
       d="m 293.71594,713.25762 -9.20206,-9.0495 1.62968,-1.65715 7.23297,7.11306 4.23716,-4.30859 -6.93079,-6.81588 1.62968,-1.65715 6.93079,6.81588 5.1862,-5.27364 -7.40843,-7.28561 1.62968,-1.65715 9.37751,9.22205 -14.31239,14.55368" />
    <path
       id="path4401"
       d="m 266.58717,682.27613 2.09926,-1.68739 c 0.26598,1.13104 0.59428,2.13595 0.9849,3.01475 0.39066,0.87879 0.85721,1.65564 1.39967,2.33053 0.94222,1.17217 1.89761,1.89521 2.86618,2.16913 0.96289,0.2668 1.86347,0.0633 2.70174,-0.61051 0.70332,-0.56532 1.06768,-1.20317 1.09306,-1.91353 0.0126,-0.71176 -0.34494,-1.74579 -1.07263,-3.10209 l -0.77858,-1.51418 c -0.98504,-1.85107 -1.39589,-3.46788 -1.23256,-4.85045 0.15055,-1.38395 0.87229,-2.59556 2.16522,-3.63484 1.5416,-1.23912 3.12708,-1.65986 4.75643,-1.26223 1.62366,0.39056 3.23778,1.58395 4.84236,3.5802 0.60529,0.75304 1.16531,1.62432 1.68004,2.61386 0.50903,0.98244 0.96205,2.06251 1.35907,3.24021 l -2.21648,1.78161 c -0.21217,-1.26781 -0.53085,-2.42079 -0.95602,-3.45894 -0.42517,-1.03814 -0.96324,-1.96214 -1.61422,-2.77201 -0.98787,-1.22901 -1.99173,-1.98325 -3.01159,-2.26275 -1.01983,-0.27947 -1.97731,-0.0595 -2.87244,0.66002 -0.78144,0.62814 -1.19824,1.36076 -1.25041,2.19787 -0.0578,0.83002 0.24279,1.88055 0.90194,3.1516 l 0.7978,1.51627 c 0.97085,1.86249 1.40364,3.42659 1.29838,4.69229 -0.10525,1.2657 -0.76527,2.38678 -1.98009,3.36324 -1.4066,1.13063 -2.9117,1.5277 -4.51531,1.19121 -1.60929,-0.34361 -3.11345,-1.38566 -4.51249,-3.12616 -0.59956,-0.74593 -1.14307,-1.56032 -1.63054,-2.44316 -0.48742,-0.88284 -0.92165,-1.83769 -1.30269,-2.86455" />
    <path
       id="path4403"
       d="m 254.48046,663.3763 2.41147,-1.63254 c -0.19582,1.25528 -0.17474,2.44076 0.0632,3.55644 0.23289,1.10813 0.68146,2.1528 1.34569,3.13399 1.3081,1.93219 2.90208,3.01042 4.78196,3.23468 1.87236,0.22937 3.92558,-0.41217 6.15967,-1.92463 2.22656,-1.50736 3.58487,-3.17538 4.07493,-5.00408 0.48252,-1.82358 0.0697,-3.70147 -1.23834,-5.63367 -0.66425,-0.98119 -1.46755,-1.7857 -2.40991,-2.41353 -0.94745,-0.63536 -2.04029,-1.09527 -3.27851,-1.37972 l 2.38883,-1.61721 c 1.08506,0.43217 2.06747,1.00535 2.94723,1.71956 0.87466,0.70669 1.64923,1.55817 2.3237,2.55444 1.73218,2.55866 2.31528,5.10273 1.7493,7.63222 -0.57352,2.5346 -2.21508,4.71908 -4.92469,6.55346 -2.71714,1.83947 -5.35509,2.55217 -7.91385,2.13809 -2.56627,-0.40899 -4.71551,-1.8928 -6.44771,-4.45145 -0.68467,-1.01138 -1.19263,-2.05436 -1.52388,-3.12893 -0.34386,-1.077 -0.51356,-2.18938 -0.50911,-3.33712" />
    <path
       id="path4405"
       d="m 254.79611,645.33812 c -0.1137,-0.61503 -0.0196,-1.32523 0.2824,-2.13059 0.29756,-0.8133 0.80997,-1.74657 1.53724,-2.79982 l 3.50431,-5.1663 1.44619,2.59045 -3.29917,4.83256 c -0.86496,1.25538 -1.33693,2.27045 -1.41589,3.04524 -0.0834,0.76684 0.1415,1.62775 0.67464,2.58275 l 1.46619,2.62626 7.53259,-4.20527 1.34622,2.41138 -17.82276,9.95005 -3.039,-5.44353 c -1.13737,-2.03734 -1.56021,-3.79508 -1.2685,-5.27324 0.29175,-1.47815 1.29712,-2.69706 3.0161,-3.65675 1.12215,-0.62645 2.1999,-0.88365 3.23324,-0.77161 1.02894,0.10411 1.96434,0.57358 2.8062,1.40842 m -4.11263,10.21902 6.3269,-3.53216 -1.69277,-3.03214 c -0.64866,-1.16192 -1.40399,-1.8885 -2.266,-2.17974 -0.87437,-0.29475 -1.83284,-0.15112 -2.87541,0.43091 -1.04252,0.58203 -1.65981,1.3181 -1.85186,2.20821 -0.20441,0.8866 0.0177,1.91086 0.66637,3.07278 l 1.69277,3.03214" />
    <path
       id="path4407"
       d="m 240.02969,640.45274 -5.34537,-11.74727 2.1155,-0.96262 4.20156,9.23355 5.50031,-2.50281 -4.02602,-8.84778 2.1155,-0.96262 4.02602,8.84778 6.73228,-3.0634 -4.30348,-9.45754 2.1155,-0.96262 5.4473,11.97126 -18.5791,8.45407" />
    <path
       id="path4409"
       d="m 232.28114,622.75209 -4.40755,-12.13033 2.18448,-0.79373 3.46441,9.53464 5.67967,-2.06371 -3.31967,-9.13629 2.18448,-0.79373 3.31967,9.13629 6.95181,-2.52594 -3.54845,-9.76594 2.18448,-0.79373 4.4916,12.36162 -19.18493,6.97085" />
    <path
       id="path4411"
       d="m 225.85867,604.36808 -0.96589,-3.59112 14.13928,-13.17547 -16.49011,4.43532 -0.69601,-2.58772 19.71155,-5.30178 0.9659,3.59112 -14.13928,13.17547 16.4901,-4.43532 0.69602,2.58772 -19.71156,5.30178" />
    <path
       id="path4413"
       d="m 227.98794,561.68475 c 0.11961,-0.61391 0.46747,-1.24019 1.04357,-1.87886 0.57491,-0.64767 1.3937,-1.32822 2.45637,-2.04165 l 5.15385,-3.5226 0.39622,2.94022 -4.84067,3.28726 c -1.26486,0.85104 -2.07599,1.62253 -2.4334,2.31447 -0.35862,0.68292 -0.46489,1.56636 -0.31883,2.6503 l 0.4017,2.98087 8.54967,-1.15215 0.36884,2.73698 -20.22926,2.72608 -0.83261,-6.17853 c -0.3116,-2.31242 -0.0608,-4.10283 0.75229,-5.37124 0.81317,-1.26838 2.1953,-2.03405 4.14639,-2.29699 1.27366,-0.17162 2.37068,-0.016 3.29107,0.467 0.9192,0.47395 1.61746,1.25356 2.0948,2.33884 m -7.57157,8.00084 7.18118,-0.96773 -0.46378,-3.44155 c -0.17771,-1.3188 -0.61421,-2.27164 -1.30951,-2.85853 -0.70552,-0.59468 -1.64994,-0.8123 -2.83327,-0.65285 -1.1833,0.15947 -2.02739,0.61811 -2.53229,1.37591 -0.51511,0.75 -0.68381,1.7844 -0.50611,3.1032 l 0.46378,3.44155" />
    <path
       id="path4415"
       d="m 216.04057,551.74213 -0.67743,-12.88846 2.32101,-0.122 0.53248,10.13055 6.03464,-0.31719 -0.51023,-9.7073 2.32101,-0.122 0.51023,9.70731 7.38629,-0.38824 -0.54539,-10.3763 2.32101,-0.12199 0.69035,13.13421 -20.38397,1.07141" />
    <path
       id="path4417"
       d="m 217.27987,517.15131 2.91094,0.0824 c -0.89183,0.90483 -1.56682,1.87961 -2.02497,2.92434 -0.45786,1.03565 -0.70357,2.14567 -0.73712,3.33008 -0.066,2.33241 0.59864,4.1384 1.99396,5.41797 1.38624,1.27933 3.42777,1.95717 6.1246,2.03351 2.68773,0.0761 4.76434,-0.48515 6.22983,-1.68374 1.45638,-1.19884 2.21759,-2.96447 2.28362,-5.29687 0.0335,-1.18441 -0.14897,-2.30656 -0.54753,-3.36646 -0.39829,-1.06897 -1.01705,-2.08038 -1.85628,-3.03421 l 2.88361,0.0816 c 0.62865,0.98435 1.09162,2.02326 1.38892,3.11673 0.29755,1.08439 0.42931,2.2279 0.39526,3.43053 -0.0874,3.08861 -1.09929,5.49453 -3.03555,7.21777 -1.94537,1.72298 -4.55346,2.53817 -7.8243,2.44557 -3.27992,-0.0929 -5.83772,-1.0543 -7.6734,-2.88433 -1.84475,-1.83027 -2.72342,-4.28971 -2.636,-7.37833 0.0346,-1.22085 0.23108,-2.36418 0.58949,-3.43 0.3496,-1.07516 0.86124,-2.07736 1.53492,-3.0066" />
    <path
       id="path4419"
       d="m 219.00215,502.96251 c -0.23839,1.991 0.31406,3.6636 1.65736,5.0178 1.34441,1.34517 3.29717,2.17109 5.85829,2.47776 2.55209,0.3056 4.64011,-0.0365 6.26409,-1.02618 1.62507,-0.99876 2.55681,-2.49364 2.79521,-4.48463 0.23841,-1.99098 -0.31512,-3.65452 -1.6606,-4.99065 -1.3444,-1.34515 -3.29263,-2.17053 -5.84472,-2.47614 -2.56112,-0.30666 -4.65367,0.0349 -6.27767,1.02456 -1.62288,0.98069 -2.55353,2.46651 -2.79196,4.45748 m -2.22628,-0.26658 c 0.34029,-2.84166 1.56706,-4.99887 3.68031,-6.47162 2.10423,-1.47379 4.75817,-2.01889 7.96183,-1.63529 3.19464,0.38255 5.64485,1.53884 7.35065,3.46886 1.69676,1.92898 2.375,4.31429 2.03473,7.15596 -0.34136,2.85074 -1.56469,5.01753 -3.66999,6.50039 -2.10421,1.47382 -4.75815,2.01892 -7.96184,1.6353 -3.20366,-0.38362 -5.65387,-1.53991 -7.35064,-3.46887 -1.70471,-1.93908 -2.38639,-4.33399 -2.04505,-7.18473" />
    <path
       id="path4421"
       d="m 232.01833,480.07901 c 0.32003,-0.53737 0.85907,-1.00926 1.61711,-1.41567 0.75995,-0.41529 1.76055,-0.77911 3.0018,-1.09147 l 6.04104,-1.57372 -0.62068,2.90114 -5.66676,1.45807 c -1.47804,0.37354 -2.50216,0.82553 -3.07238,1.35599 -0.56829,0.52156 -0.96686,1.31711 -1.19568,2.38665 l -0.62926,2.94125 8.43605,1.80483 -0.57777,2.7006 -19.96042,-4.27036 1.30428,-6.09642 c 0.48817,-2.28168 1.32921,-3.88203 2.52314,-4.80104 1.19395,-0.91897 2.75351,-1.17253 4.67868,-0.76067 1.25673,0.26888 2.23661,0.78611 2.93965,1.55168 0.70496,0.75669 1.09869,1.7264 1.1812,2.90914 m -9.82987,4.9715 7.08575,1.51594 0.72651,-3.39581 c 0.2784,-1.30127 0.18957,-2.34557 -0.26649,-3.13289 -0.46306,-0.79812 -1.27838,-1.32208 -2.44598,-1.57189 -1.16758,-0.24978 -2.117,-0.10337 -2.84828,0.43923 -0.73825,0.53181 -1.24659,1.44835 -1.525,2.74961 l -0.72651,3.39581" />
    <path
       id="path4423"
       d="m 227.12136,464.51848 15.15611,4.71656 0.99125,-3.18527 c 0.83688,-2.68918 0.83976,-4.84562 0.009,-6.46932 -0.8284,-1.63236 -2.55674,-2.85751 -5.18502,-3.67545 -2.61087,-0.81248 -4.71615,-0.78035 -6.31587,0.0964 -1.60568,0.86537 -2.82697,2.64264 -3.66386,5.33182 l -0.99125,3.18527 m -2.98764,1.9626 1.68593,-5.41755 c 1.17543,-3.77705 2.82565,-6.30382 4.95065,-7.58032 2.11633,-1.27917 4.84544,-1.39876 8.18735,-0.35879 3.35932,1.04544 5.55034,2.70095 6.57307,4.96653 1.02272,2.26562 0.94909,5.27824 -0.22091,9.03788 l -1.68594,5.41756 -19.49015,-6.06531" />
    <path
       id="path4425"
       d="m 231.4455,444.33292 4.89219,-11.94311 2.15077,0.88101 -3.84535,9.38749 5.59201,2.29062 3.68469,-8.99528 2.15077,0.881 -3.68469,8.99529 6.84451,2.80368 3.93863,-9.61521 2.15077,0.88101 -4.98547,12.17083 -18.88883,-7.73733" />
    <path
       id="path4427"
       d="m 253.0932,422.77494 c 0.44755,-0.43691 1.08987,-0.75418 1.92697,-0.95182 0.84124,-0.20572 1.90176,-0.29978 3.18159,-0.28217 l 6.24256,0.034 -1.34639,2.64369 -5.85113,-0.0494 c -1.52439,-0.0194 -2.63034,0.15378 -3.31786,0.51962 -0.68339,0.35774 -1.27326,1.02393 -1.76963,1.99855 l -1.36501,2.68024 7.68741,3.91509 -1.25333,2.46095 -18.18908,-9.26345 2.8293,-5.55541 c 1.05893,-2.0792 2.2835,-3.40919 3.67372,-3.98998 1.39024,-0.58075 2.96253,-0.4244 4.71686,0.46904 1.1452,0.58325 1.95896,1.33523 2.4413,2.25594 0.48647,0.91263 0.61738,1.95101 0.39272,3.11515 m -10.77821,2.27427 6.45694,3.28843 1.57597,-3.09445 c 0.60392,-1.18579 0.78684,-2.21778 0.54876,-3.09595 -0.24206,-0.89041 -0.89508,-1.60655 -1.95906,-2.14843 -1.06396,-0.54185 -2.01909,-0.64471 -2.86538,-0.30859 -0.85025,0.3239 -1.57734,1.07875 -2.18126,2.26453 l -1.57597,3.09446" />
    <path
       id="path4429"
       d="m 289.57494,358.29376 c -1.00781,1.00303 -1.27183,2.25595 -0.79206,3.75876 0.47981,1.48996 1.70987,3.22983 3.69016,5.21962 1.97387,1.98335 3.70783,3.22172 5.20189,3.7151 1.49409,0.48052 2.74504,0.21927 3.75287,-0.78375 1.01427,-1.00943 1.28151,-2.25912 0.80171,-3.74907 -0.47979,-1.50282 -1.70661,-3.24591 -3.68047,-5.22926 -1.9803,-1.98978 -3.71749,-3.22494 -5.21159,-3.70546 -1.49405,-0.49338 -2.74822,-0.23536 -3.76251,0.77406 m -1.54309,-1.55049 c 1.62157,-1.6138 3.49847,-2.20224 5.63072,-1.76535 2.13228,0.42405 4.4136,1.85708 6.84397,4.29909 2.42393,2.43558 3.84601,4.72374 4.26627,6.86447 0.42027,2.12787 -0.18037,3.9987 -1.80192,5.61251 -1.62157,1.61381 -3.49848,2.20871 -5.63076,1.78467 -2.13225,-0.43691 -4.41034,-1.87315 -6.83428,-4.30873 -2.43036,-2.44201 -3.85568,-4.72695 -4.27596,-6.85482 -0.42024,-2.14073 0.18042,-4.01801 1.80196,-5.63184" />
    <path
       id="path4431"
       d="m 297.54767,348.1342 9.99634,-8.50522 0.76193,0.8955 6.82169,19.4528 -2.19711,1.86938 -6.4107,-18.29461 -7.46602,6.35233 -1.50613,-1.77018" />
    <path
       id="path4433"
       d="m 312.49781,335.7313 10.62981,-7.69889 0.6897,0.95226 5.28226,19.92597 -2.33635,1.69215 -4.96293,-18.73923 -7.93914,5.7501 -1.36335,-1.88236" />
    <path
       id="path4435"
       d="m 328.94822,324.05609 3.54127,-2.09633 11.55844,9.29977 -2.56997,-14.62067 3.54127,-2.09632 10.39805,17.56515 -2.31771,1.37202 -9.1305,-15.42393 2.60215,14.72872 -2.3883,1.4138 -11.66121,-9.36603 9.1305,15.42393 -2.30594,1.36505 -10.39805,-17.56516" />
    <path
       id="path4437"
       d="m 351.83437,310.98304 3.74443,-1.70715 10.50198,10.47814 -0.99783,-14.81125 3.74443,-1.70715 8.4677,18.57289 -2.45067,1.11731 -7.43548,-16.30882 1.01833,14.92211 -2.52531,1.15133 -10.59711,-10.55497 7.43547,16.30882 -2.43824,1.11163 -8.4677,-18.57289" />
  </g>
  <g
     style="font-size:40px;text-align:center;text-anchor:middle;opacity:0.35064937;fill:#ffffff;font-family:Bitstream Vera Sans"
     id="text4014"
     transform="matrix(0,-0.10191498,0.10191498,0,-21.867826,78.949908)">
    <path
       id="path4440"
       d="m 351.65502,753.79719 -14.08135,-7.67492 1.00762,-1.84871 18.98106,-7.85674 -11.60841,-6.32707 1.11231,-2.04078 14.63356,7.97591 -1.00762,1.8487 -18.98106,7.85674 11.05619,6.0261 -1.1123,2.04077" />
    <path
       id="path4442"
       d="m 326.42415,736.75764 c 1.66644,1.11529 3.4077,1.38135 5.2238,0.79816 1.80855,-0.58827 3.43016,-1.95421 4.86484,-4.09783 1.42962,-2.13605 2.07157,-4.15218 1.92585,-6.04839 -0.15329,-1.90128 -1.06314,-3.40957 -2.72957,-4.52488 -1.66641,-1.1153 -3.4001,-1.37629 -5.20108,-0.78296 -1.80852,0.58827 -3.42759,1.95043 -4.85723,4.08647 -1.43467,2.14362 -2.07915,4.16354 -1.93346,6.05975 0.13817,1.89114 1.04045,3.39436 2.70685,4.50968 m -1.24712,1.86336 c -2.37841,-1.59186 -3.7448,-3.66344 -4.09918,-6.21476 -0.35939,-2.54375 0.35821,-5.15634 2.15281,-7.83776 1.78958,-2.67384 3.93122,-4.33335 6.42491,-4.97852 2.48865,-0.63759 4.92219,-0.16046 7.30061,1.43138 2.38602,1.59692 3.76252,3.66978 4.12951,6.2186 0.35943,2.54375 -0.35818,5.15634 -2.15281,7.83776 -1.79462,2.68141 -3.93625,4.34092 -6.4249,4.97852 -2.50127,0.64009 -4.94492,0.16168 -7.33095,-1.43522" />
    <path
       id="path4444"
       d="m 307.2914,722.56448 c 1.55098,1.27097 3.25842,1.70388 5.12234,1.29875 1.85689,-0.41092 3.6028,-1.61393 5.23772,-3.60903 1.62917,-1.98805 2.46276,-3.93279 2.50078,-5.83421 0.031,-1.9072 -0.72901,-3.49629 -2.27998,-4.76727 -1.55095,-1.27097 -3.25134,-1.6981 -5.10119,-1.28142 -1.85686,0.41093 -3.59988,1.61041 -5.22906,3.59846 -1.63491,1.9951 -2.47139,3.94336 -2.50944,5.84479 -0.0451,1.89564 0.70789,3.47895 2.25883,4.74993 m -1.42118,1.73426 c -2.21363,-1.81404 -3.37364,-4.00786 -3.48005,-6.58147 -0.11214,-2.56657 0.85433,-5.09767 2.89942,-7.59331 2.03936,-2.48859 4.3312,-3.93358 6.87553,-4.335 2.53858,-0.39435 4.91469,0.31549 7.12832,2.12951 2.22071,1.81981 3.39066,4.01588 3.50987,6.58822 0.11217,2.56657 -0.85431,5.09767 -2.89943,7.59332 -2.0451,2.49563 -4.33694,3.94062 -6.87552,4.33499 -2.55138,0.39562 -4.93743,-0.31647 -7.15814,-2.13626" />
    <path
       id="path4446"
       d="m 294.07419,713.7292 -2.90336,-2.91644 6.16916,-13.49164 -13.53851,6.08912 -2.90337,-2.91644 14.46593,-14.40108 1.90021,1.90876 -12.7025,12.64556 13.63532,-6.1469 1.95808,1.9669 -6.20809,13.60756 12.70249,-12.64556 1.89056,1.89907 -14.46592,14.40109" />
    <path
       id="path4448"
       d="m 263.95643,679.85662 -1.60012,-2.25094 14.74254,-10.47995 -5.75882,-8.10115 1.89436,-1.34663 7.35893,10.35209 -16.63689,11.82658" />
    <path
       id="path4450"
       d="m 254.23658,665.80968 -6.68828,-11.03803 1.98778,-1.20446 5.2571,8.67608 5.16823,-3.13159 -5.03747,-8.3136 1.98779,-1.20446 5.03746,8.3136 6.32582,-3.833 -5.38463,-8.88656 1.98778,-1.20445 6.81581,11.2485 -17.45739,10.57797" />
    <path
       id="path4452"
       d="m 242.19129,644.8971 -1.58575,-3.3637 11.5864,-15.46828 -15.44583,7.28162 -1.14268,-2.42385 18.46327,-8.70413 1.58575,3.36371 -11.58639,15.46828 15.44583,-7.28162 1.14267,2.42384 -18.46327,8.70413" />
    <path
       id="path4454"
       d="m 229.23439,612.50297 2.52562,-0.93563 c -0.10594,1.15705 -0.11283,2.21421 -0.0207,3.17148 0.0922,0.95728 0.28871,1.8419 0.58948,2.65386 0.52245,1.41025 1.19965,2.39866 2.0316,2.96525 0.82882,0.55804 1.74749,0.65025 2.75602,0.27663 0.84616,-0.31346 1.39378,-0.80307 1.64285,-1.46882 0.23738,-0.67112 0.22575,-1.76516 -0.0349,-3.28211 l -0.25891,-1.68283 c -0.34804,-2.06775 -0.22566,-3.73146 0.36716,-4.99111 0.58112,-1.26502 1.64945,-2.18566 3.20499,-2.76193 1.8547,-0.68706 3.49181,-0.58399 4.91133,0.30923 1.41637,0.8847 2.56941,2.52789 3.45913,4.92958 0.33562,0.90598 0.59085,1.90978 0.76567,3.0114 0.17166,1.09308 0.25927,2.26103 0.26285,3.50385 l -2.66665,0.98788 c 0.20029,-1.26975 0.2632,-2.4643 0.18872,-3.58366 -0.0745,-1.11936 -0.29219,-2.16621 -0.65314,-3.14057 -0.54776,-1.47862 -1.26105,-2.51198 -2.13988,-3.1001 -0.87881,-0.5881 -1.85668,-0.68268 -2.93361,-0.28374 -0.94015,0.3483 -1.56753,0.91119 -1.88215,1.68868 -0.31776,0.76897 -0.36532,1.86063 -0.14269,3.27501 l 0.27649,1.6909 c 0.33097,2.0741 0.24609,3.69474 -0.25463,4.86195 -0.50071,1.1672 -1.48183,2.02151 -2.94337,2.56295 -1.69228,0.62691 -3.24566,0.52683 -4.66014,-0.30024 -1.41761,-0.83562 -2.51429,-2.30043 -3.29004,-4.39443 -0.33244,-0.89743 -0.59003,-1.84203 -0.77278,-2.83381 -0.18271,-0.99177 -0.29216,-2.035 -0.32835,-3.12967" />
    <path
       id="path4456"
       d="m 235.3573,502.33494 0.6926,-4.45824 -15.38768,-2.39052 0.21924,5.00113 -2.48581,-0.38617 -0.22344,-4.97412 0.42396,-2.72899 17.87349,2.77671 0.6926,-4.45824 2.29667,0.35679 -1.80496,11.61845 -2.29667,-0.3568" />
    <path
       id="path4458"
       d="m 220.52824,481.54993 3.0302,-12.77041 1.14401,0.27145 17.00584,11.6511 -0.66601,2.80683 -15.98944,-10.96028 -2.26318,9.53791 -2.26142,-0.5366" />
    <path
       id="path4460"
       d="m 236.077,467.31403 2.14214,-7.05092 2.14536,0.65178 -2.14213,7.05092 -2.14537,-0.65178" />
    <path
       id="path4462"
       d="m 240.57783,446.9641 c 0.72653,-1.13958 1.63724,-1.89919 2.73213,-2.27886 1.09808,-0.38816 2.262,-0.35296 3.49177,0.10562 1.88736,0.70384 3.10568,1.89747 3.65496,3.5809 0.54927,1.68346 0.37805,3.72079 -0.51367,6.11201 -0.29937,0.80277 -0.68941,1.60091 -1.17014,2.3944 -0.46901,0.78815 -1.0303,1.57593 -1.68386,2.36334 l -2.49798,-0.93152 c 0.68598,-0.56132 1.29496,-1.22917 1.82693,-2.00357 0.53198,-0.77438 0.97153,-1.62701 1.31866,-2.55789 0.6051,-1.62261 0.74503,-2.97608 0.41982,-4.06041 -0.32204,-1.09285 -1.09368,-1.86699 -2.31491,-2.32242 -1.12729,-0.42037 -2.15501,-0.35128 -3.08316,0.20727 -0.93349,0.54685 -1.66298,1.52482 -2.18846,2.93393 l -0.83121,2.22896 -2.12649,-0.79299 0.86943,-2.33145 c 0.47453,-1.27246 0.58565,-2.33998 0.33337,-3.20256 -0.2608,-0.86573 -0.86945,-1.47695 -1.82595,-1.83366 -0.9821,-0.36622 -1.86421,-0.29633 -2.64631,0.20967 -0.78743,0.49431 -1.42319,1.39051 -1.90728,2.68859 -0.26432,0.70884 -0.4709,1.49757 -0.61974,2.36619 -0.14881,0.86865 -0.24249,1.85026 -0.28104,2.94484 l -2.30583,-0.85988 c 0.093,-1.08401 0.23038,-2.0785 0.41219,-2.98348 0.18503,-0.91349 0.41926,-1.75027 0.70268,-2.51036 0.7325,-1.9642 1.76047,-3.3513 3.08392,-4.1613 1.31493,-0.81314 2.73246,-0.93628 4.25258,-0.36942 1.05898,0.39492 1.84264,1.03249 2.35096,1.9127 0.4998,0.87707 0.68201,1.92751 0.54663,3.15135" />
    <path
       id="path4464"
       d="m 235.9261,433.38422 4.57787,-9.82791 2.10687,0.98139 -3.50989,7.53514 4.53595,2.11286 c 0.0454,-0.42126 0.12387,-0.82713 0.23536,-1.21762 0.10325,-0.39431 0.23953,-0.77324 0.40886,-1.13679 0.96215,-2.06554 2.29013,-3.43783 3.98394,-4.11687 1.69381,-0.67902 3.5074,-0.56825 5.44075,0.3323 1.99119,0.92752 3.25172,2.26879 3.78157,4.02381 0.52159,1.75121 0.25705,3.75459 -0.7936,6.01017 -0.36177,0.77665 -0.79733,1.53904 -1.30668,2.28715 -0.50551,0.73986 -1.09059,1.47785 -1.75523,2.21396 l -2.51584,-1.17189 c 0.75122,-0.55501 1.41071,-1.18293 1.97846,-1.88374 0.56776,-0.7008 1.05753,-1.49323 1.46933,-2.37729 0.6658,-1.42936 0.81712,-2.73639 0.45397,-3.9211 -0.36316,-1.18469 -1.18919,-2.07723 -2.47809,-2.67762 -1.28891,-0.60036 -2.50364,-0.65842 -3.64421,-0.17417 -1.14056,0.48428 -2.04374,1.44109 -2.70955,2.87044 -0.31173,0.66925 -0.5491,1.37313 -0.71212,2.11163 -0.15916,0.73026 -0.2434,1.51552 -0.25273,2.35578 l -9.29499,-4.32963" />
    <path
       id="path4466"
       d="m 262.25607,401.65091 c -0.60675,-1.14223 -0.89798,-2.22674 -0.87369,-3.25351 0.0243,-1.02673 0.3585,-2.03737 1.00261,-3.03192 0.86709,-1.33877 2.00647,-2.06683 3.41815,-2.1842 1.40402,-0.12226 2.97051,0.37648 4.69947,1.49623 l 7.75734,5.02412 -1.37495,2.12294 -7.68848,-4.97953 c -1.23169,-0.79769 -2.2871,-1.17175 -3.16624,-1.12218 -0.87914,0.0496 -1.60856,0.52195 -2.18827,1.417 -0.70853,1.09401 -0.90503,2.19383 -0.5895,3.29948 0.31553,1.10569 1.10061,2.06482 2.35525,2.87738 l 7.26389,4.70453 -1.37494,2.12294 -7.68848,-4.97952 c -1.23934,-0.80266 -2.29475,-1.17672 -3.16624,-1.12219 -0.87914,0.0496 -1.61351,0.5296 -2.20314,1.43996 -0.69861,1.0787 -0.88633,2.17335 -0.56316,3.28396 0.31553,1.10568 1.09679,2.06233 2.34377,2.86994 l 7.2639,4.70454 -1.37494,2.12294 -12.85239,-8.32398 1.37494,-2.12294 1.99671,1.29319 c -0.47582,-0.99229 -0.68315,-1.94645 -0.622,-2.86246 0.0612,-0.91599 0.3915,-1.83683 0.99102,-2.76253 0.60449,-0.93331 1.35446,-1.57151 2.24992,-1.9146 0.90043,-0.35071 1.90358,-0.39057 3.00945,-0.11959" />
    <path
       id="path4468"
       d="m 279.39241,378.56142 c -0.46595,-1.20654 -0.62554,-2.31807 -0.47876,-3.33459 0.14677,-1.01647 0.59932,-1.97995 1.35763,-2.89044 1.02081,-1.22559 2.23901,-1.81233 3.6546,-1.76021 1.40857,0.0463 2.90427,0.72865 4.48707,2.04692 l 7.10159,5.91485 -1.6187,1.94348 -7.03856,-5.86235 c -1.12758,-0.93912 -2.13075,-1.43658 -3.00951,-1.49239 -0.87877,-0.0558 -1.6594,0.32605 -2.34188,1.14544 -0.83414,1.00153 -1.16062,2.07 -0.97944,3.20543 0.18118,1.13546 0.84606,2.18151 1.99464,3.13813 l 6.64987,5.53861 -1.61871,1.94348 -7.03856,-5.86235 c -1.13457,-0.94496 -2.13774,-1.44242 -3.00951,-1.49239 -0.87876,-0.0558 -1.66522,0.33305 -2.35937,1.16645 -0.82248,0.98751 -1.13962,2.0519 -0.95144,3.19317 0.18119,1.13546 0.84256,2.17858 1.98414,3.12938 l 6.64986,5.53861 -1.61871,1.94348 -11.76595,-9.79975 1.61871,-1.94348 1.82792,1.52246 c -0.35386,-1.04203 -0.44573,-2.01411 -0.27559,-2.91627 0.17016,-0.90212 0.60814,-1.7769 1.31395,-2.62434 0.71165,-0.85442 1.53249,-1.39846 2.46253,-1.63212 0.93587,-0.24063 1.9366,-0.16036 3.00218,0.24079" />
    <path
       id="path4470"
       d="m 311.10199,360.31644 3.45208,-2.90496 -10.02651,-11.91489 -3.12163,3.91342 -1.61974,-1.92479 3.10071,-3.89582 2.11309,-1.77818 11.64624,13.83968 3.45208,-2.90496 1.49649,1.77834 -8.99632,7.5705 -1.49649,-1.77834" />
    <path
       id="path4472"
       d="m 324.22226,348.2023 2.31429,-1.72219 2.07316,2.78592 -2.31429,1.72219 -2.07316,-2.78592 m -6.57045,-8.82939 2.31429,-1.72219 2.07316,2.78592 -2.31429,1.72219 -2.07316,-2.78592" />
    <path
       id="path4474"
       d="m 334.40595,342.30558 8.06331,-5.28082 1.27339,1.94434 -10.84258,7.10102 -1.27339,-1.94435 c 0.28262,-1.48163 0.67942,-3.4793 1.19041,-5.99304 0.51362,-2.52633 0.82004,-4.13796 0.91928,-4.83489 0.1953,-1.31548 0.25056,-2.35405 0.16578,-3.11569 -0.0822,-0.77422 -0.30549,-1.43965 -0.67003,-1.99629 -0.59425,-0.90734 -1.39888,-1.43722 -2.41389,-1.58963 -1.00739,-0.15737 -2.02196,0.0985 -3.04369,0.76764 -0.72436,0.47442 -1.40826,1.10209 -2.05172,1.88303 -0.63581,0.77597 -1.24392,1.719 -1.82434,2.8291 l -1.52807,-2.33322 c 0.68556,-0.98283 1.37003,-1.83423 2.05341,-2.5542 0.6834,-0.71993 1.3606,-1.29963 2.03158,-1.73909 1.76898,-1.15851 3.46921,-1.6401 5.10071,-1.44477 1.6315,0.19538 2.93163,1.03268 3.90041,2.51188 0.45941,0.70151 0.76293,1.45607 0.91054,2.2637 0.15023,0.79504 0.15806,1.84676 0.0235,3.15515 -0.0458,0.34598 -0.23252,1.38347 -0.56012,3.11247 -0.33261,1.72139 -0.80744,4.14061 -1.42448,7.25766" />
    <path
       id="path4476"
       d="m 342.99656,329.21096 6.40122,-3.65084 1.11083,1.94768 -6.40122,3.65084 -1.11083,-1.94768" />
    <path
       id="path4478"
       d="m 358.61507,319.78031 c -1.17802,0.57873 -1.95181,1.34983 -2.32135,2.3133 -0.36137,0.95947 -0.27078,1.9914 0.27177,3.09579 0.54254,1.1044 1.30395,1.80679 2.28423,2.10715 0.98845,0.29635 2.07168,0.15517 3.24971,-0.42355 1.17802,-0.57871 1.95181,-1.34981 2.32136,-2.3133 0.36552,-0.97166 0.27902,-2.0056 -0.2595,-3.10182 -0.54255,-1.10439 -1.30805,-1.80476 -2.2965,-2.10112 -0.98028,-0.30036 -2.06352,-0.15918 -3.24972,0.42355 m -2.99719,0.1624 c -1.1921,0.26068 -2.26558,0.17366 -3.22046,-0.26106 -0.94669,-0.43871 -1.67724,-1.18164 -2.19166,-2.22878 -0.71937,-1.46434 -0.76857,-2.87711 -0.14758,-4.23832 0.62917,-1.36519 1.85182,-2.49389 3.66794,-3.3861 1.8243,-0.89618 3.46491,-1.17409 4.92182,-0.83371 1.45691,0.34042 2.54506,1.24279 3.26444,2.70712 0.51441,1.04715 0.65186,2.08145 0.41236,3.1029 -0.23134,1.01746 -0.81037,1.91628 -1.73707,2.69649 1.33102,-0.3086 2.52679,-0.22072 3.5873,0.26363 1.06868,0.48036 1.89037,1.30545 2.46508,2.47528 0.87209,1.77523 0.99721,3.40457 0.37537,4.88804 -0.61368,1.47946 -1.93083,2.71552 -3.95146,3.70817 -2.02064,0.99267 -3.80807,1.28177 -5.3623,0.86731 -1.54604,-0.41847 -2.75511,-1.51531 -3.62721,-3.29054 -0.57469,-1.16983 -0.72557,-2.32447 -0.45262,-3.46392 0.27296,-1.13943 0.9383,-2.1416 1.99605,-3.00651 m -2.83109,-3.46838 c 0.46619,0.94898 1.1244,1.54465 1.97464,1.78703 0.85842,0.23838 1.82347,0.0943 2.89514,-0.43216 1.06349,-0.52244 1.76322,-1.19622 2.09919,-2.02136 0.34415,-0.82913 0.28313,-1.71818 -0.18306,-2.66717 -0.46619,-0.94894 -1.13259,-1.5406 -1.99918,-1.77497 -0.85842,-0.23835 -1.81938,-0.0963 -2.88287,0.42613 -1.07168,0.52649 -1.7755,1.20229 -2.11147,2.02739 -0.32778,0.82112 -0.25858,1.70616 0.20761,2.65511" />
  </g>
  <path
     style="opacity:0.54082001;fill:url(#radialGradient4028)"
     id="path4020"
     d="M 14.721987,28.881127 C 14.340415,25.888088 22.82393,16.228373 28.101386,15.867605 l 3.117789,9.104675 c -4.187891,4.090764 -4.924839,5.265837 -5.010455,6.182565 L 14.721894,28.881127 z" />
  <path
     style="opacity:0.54082001;fill:#ffffff"
     id="path4030"
     d="m 22.474661,26.705237 c 0.793301,-1.736728 2.627264,-3.63541 3.748529,-3.844941 l 4.588726,3.944615 c -2.430053,2.373604 -2.857586,3.055406 -2.907328,3.587403 l -5.43002,-3.686971 z" />
  <g
     style="opacity:0.54112555"
     id="layer1-5"
     transform="matrix(1.1639175,0,0,1.1639175,4.4706869,4.5133297)">
    <g
       id="g2837">
      <path
         style="opacity:0.15;color:#000000;fill:none;stroke:url(#linearGradient5201);stroke-width:2;stroke-linecap:square;stroke-linejoin:round"
         id="path2815"
         d="m 26.087,12.829 v 22.153 h 8.826 V 12.829 h -8.826 z" />
      <path
         style="color:#000000;fill:url(#radialGradient5203);fill-rule:evenodd"
         id="path2827"
         d="m 26.5,13.406 v 21 h 8 v -21 h -8 z" />
      <path
         style="color:#000000;fill:none;stroke:url(#linearGradient5205);stroke-linecap:square;stroke-linejoin:round"
         id="path2762"
         d="M 26.5,13.408 V 34.5 h 8 V 13.408 h -8 z" />
      <path
         style="color:#000000;fill:none;stroke:url(#linearGradient5207);stroke-linecap:square"
         id="path2811"
         d="m 27.5,14.406 v 19 h 6 v -19 h -6 z" />
      <path
         style="opacity:0.5;color:#000000;fill:#f7f7f7;display:block"
         id="path2479"
         d="m 28.019,14.943 v 8.385 l 4.994,-0.618 v -7.856 l -4.994,0.089 z" />
    </g>
    <g
       id="use2844"
       transform="translate(-12.972,0)">
      <path
         style="opacity:0.15;color:#000000;fill:none;stroke:url(#linearGradient5209);stroke-width:2;stroke-linecap:square;stroke-linejoin:round"
         id="path2848"
         d="m 26.087,12.829 v 22.153 h 8.826 V 12.829 h -8.826 z" />
      <path
         style="color:#000000;fill:url(#radialGradient5211);fill-rule:evenodd"
         id="path2850"
         d="m 26.5,13.406 v 21 h 8 v -21 h -8 z" />
      <path
         style="color:#000000;fill:none;stroke:url(#linearGradient5213);stroke-linecap:square;stroke-linejoin:round"
         id="path2852"
         d="M 26.5,13.408 V 34.5 h 8 V 13.408 h -8 z" />
      <path
         style="color:#000000;fill:none;stroke:url(#linearGradient5215);stroke-linecap:square"
         id="path2854"
         d="m 27.5,14.406 v 19 h 6 v -19 h -6 z" />
      <path
         style="opacity:0.5;color:#000000;fill:#f7f7f7;display:block"
         id="path2856"
         d="m 28.019,14.943 v 10.065 l 4.994,-0.619 v -9.535 l -4.994,0.089 z" />
    </g>
  </g>
</svg>
